<?xml version="1.0" encoding="UTF-8" standalone="no"?>
<svg
   xmlns:dc="http://purl.org/dc/elements/1.1/"
   xmlns:cc="http://creativecommons.org/ns#"
   xmlns:rdf="http://www.w3.org/1999/02/22-rdf-syntax-ns#"
   xmlns:svg="http://www.w3.org/2000/svg"
   xmlns="http://www.w3.org/2000/svg"
   xmlns:sodipodi="http://sodipodi.sourceforge.net/DTD/sodipodi-0.dtd"
   xmlns:inkscape="http://www.inkscape.org/namespaces/inkscape"
   version="1.1"
   id="Layer_1"
   x="0px"
   y="0px"
   width="73"
   height="52"
   viewBox="0 0 73 51.999998"
   enable-background="new 0 0 612 792"
   xml:space="preserve"
   inkscape:version="0.48.4 r9939"
   sodipodi:docname="single-sink.svg"><metadata
   id="metadata49"><rdf:RDF><cc:Work
       rdf:about=""><dc:format>image/svg+xml</dc:format><dc:type
         rdf:resource="http://purl.org/dc/dcmitype/StillImage" /></cc:Work></rdf:RDF></metadata><defs
   id="defs47" /><sodipodi:namedview
   pagecolor="#ffffff"
   bordercolor="#666666"
   borderopacity="1"
   objecttolerance="10"
   gridtolerance="10"
   guidetolerance="10"
   inkscape:pageopacity="0"
   inkscape:pageshadow="2"
   inkscape:window-width="1920"
   inkscape:window-height="1017"
   id="namedview45"
   showgrid="false"
   fit-margin-top="2"
   fit-margin-left="2"
   fit-margin-right="2"
   fit-margin-bottom="2"
   inkscape:zoom="8.59"
   inkscape:cx="4.5590907"
   inkscape:cy="25.7772"
   inkscape:window-x="1358"
   inkscape:window-y="-8"
   inkscape:window-maximized="1"
   inkscape:current-layer="layer1" />

<g
   inkscape:groupmode="layer"
   id="layer1"
   inkscape:label="copy"
   style="display:inline"
   transform="translate(0,0.2187491)"><path
     id="path3773"
     style="fill:none;stroke:#000000;stroke-width:1;stroke-linecap:round;stroke-miterlimit:4;stroke-opacity:1;stroke-dashoffset:0"
     d="m 2.484596,2.2729311 68.011329,0 0,47.0113339 -68.011329,0 z m 57.63864,23.6418279 c 0,10.42305 -10.580843,18.872603 -23.632975,18.872603 -13.052132,0 -23.632975,-8.449553 -23.632975,-18.872603 0,-10.423051 10.580843,-18.8726039 23.632975,-18.8726039 13.052132,0 23.632975,8.4495529 23.632975,18.8726039 z m -19.455761,-4.61495 c 0,2.307011 -1.870201,4.177214 -4.177213,4.177214 -2.307012,0 -4.177215,-1.870203 -4.177215,-4.177214 0,-2.307013 1.870203,-4.177214 4.177215,-4.177214 2.307012,0 4.177213,1.870201 4.177213,4.177214 z m -1.88252,-0.05333 c 0,1.267324 -1.027369,2.294694 -2.294694,2.294694 -1.267325,0 -2.294694,-1.02737 -2.294694,-2.294694 0,-1.267324 1.027369,-2.294693 2.294694,-2.294693 1.267325,0 2.294694,1.027369 2.294694,2.294693 z"
     inkscape:connector-curvature="0" /></g></svg>