<?xml version="1.0" encoding="UTF-8" standalone="no"?>
<!-- Created with Inkscape (http://www.inkscape.org/) -->

<svg
   xmlns:dc="http://purl.org/dc/elements/1.1/"
   xmlns:cc="http://creativecommons.org/ns#"
   xmlns:rdf="http://www.w3.org/1999/02/22-rdf-syntax-ns#"
   xmlns:svg="http://www.w3.org/2000/svg"
   xmlns="http://www.w3.org/2000/svg"
   xmlns:sodipodi="http://sodipodi.sourceforge.net/DTD/sodipodi-0.dtd"
   xmlns:inkscape="http://www.inkscape.org/namespaces/inkscape"
   width="109.625"
   height="75.875"
   id="svg2"
   version="1.1"
   inkscape:version="0.48.4 r9939"
   sodipodi:docname="toilet.svg">
  <defs
     id="defs4" />
  <sodipodi:namedview
     id="base"
     pagecolor="#ffffff"
     bordercolor="#666666"
     borderopacity="1.0"
     inkscape:pageopacity="0.0"
     inkscape:pageshadow="2"
     inkscape:zoom="0.88"
     inkscape:cx="-273.93182"
     inkscape:cy="-157.00085"
     inkscape:document-units="px"
     inkscape:current-layer="layer2"
     showgrid="false"
     fit-margin-top="2"
     fit-margin-left="2"
     fit-margin-bottom="2"
     fit-margin-right="2"
     inkscape:window-width="1366"
     inkscape:window-height="705"
     inkscape:window-x="-8"
     inkscape:window-y="-8"
     inkscape:window-maximized="1"
     showguides="true"
     inkscape:guide-bbox="true" />
  <metadata
     id="metadata7">
    <rdf:RDF>
      <cc:Work
         rdf:about="">
        <dc:format>image/svg+xml</dc:format>
        <dc:type
           rdf:resource="http://purl.org/dc/dcmitype/StillImage" />
        <dc:title />
      </cc:Work>
    </rdf:RDF>
  </metadata>
  <g
     inkscape:groupmode="layer"
     id="layer2"
     inkscape:label="vector"
     style="display:inline"
     transform="translate(2,18.6875)">
    <path
       id="path3001"
       style="fill:none;stroke:#000000;stroke-width:1.36007011;stroke-linecap:round;stroke-miterlimit:4;stroke-opacity:1;stroke-dashoffset:0"
       d="m 89.443685,19.248597 c 0,12.0122 -11.19288,21.75 -25,21.75 -13.80712,0 -25,-9.7378 -25,-21.75 0,-12.0121902 11.19288,-21.7500005 25,-21.7500005 13.80712,0 25,9.7378103 25,21.7500005 z M 28.250495,1.8912068 c 7.07476,-10.5239503 20.38496,-17.6144708 35.63874,-17.6144708 22.66724,0 41.042675,15.65744087 41.042675,34.971861 l 0,0 c 0,19.31443 -18.375435,34.97187 -41.042675,34.97187 -15.25378,0 -28.56398,-7.09052 -35.63874,-17.61447 m -27.57045995,-52.623221 27.72333995,0 0,70.531651 -27.72333995,0 z"
       inkscape:connector-curvature="0" />
  </g>
</svg>
