<svg version="1.1" id="Layer_1" xmlns="http://www.w3.org/2000/svg" xmlns:xlink="http://www.w3.org/1999/xlink" x="0px" y="0px"
     width="612px" height="792px" viewBox="0 0 612 792" enable-background="new 0 0 612 792" xml:space="preserve">
    <g>
        <g style="fill:none;stroke:#D3D3D3;stroke-width:5;">

            <text text-anchor="middle" x="2600" y="775" stroke="none" fill="black" font-family="Arial,Helvetica" font-size="75">30"</text>
            <polyline points="2350,400 2450,400, 2450,1150 2350,1150"/>
            <text text-anchor="middle" x="1275" y="1650" stroke="none" fill="black" font-family="Arial,Helvetica" font-size="75">5'9"</text>
            <polyline points="400,1350 400,1450, 2150,1450 2150,1350"/>

            
            <text text-anchor="middle" x="575" y="70" stroke="none" fill="black" font-family="Arial,Helvetica" font-size="75">14"</text>
            <polyline points="400, 200 400, 100, 750,100 750,875"/>

            <text text-anchor="middle" x="20" y="600" stroke="none" fill="black" font-family="Arial,Helvetica" font-size="75">15"</text>
            <polyline points="200, 400 100, 400, 100,775 850,775"/>
        </g>
    </g>


    <g transform="translate(400 400)">
        <g style="fill:none;stroke:black;stroke-width:6;">
            <!-- Wall Case 1 and 3 -->
            <rect x="0" y="0" width="1750" height="750"/>
            <rect x="75" y="75" rx="150" ry="150" width="1600" height="600"/>
            <circle style="stroke-width:5;" cx="350" cy="375" r="30"/>
            <circle style="stroke-width:3;" cx="350" cy="375" r="50"/>
        </g>
    </g>

    
    <g transform="translate(300 100)">
            <text text-anchor="middle" x="700" y="175" stroke="none" fill="black" font-family="Arial,Helvetica" font-size="60">3" DRAIN</text>
    </g>
    <g transform="translate(350 -1000) scale(5)">
        <polyline fill="none" stroke="#000000" stroke-linecap="square" stroke-miterlimit="10" points="100.838,343.55 128.998,335.291 
            128.998,269.944         "/>
        <polygon points="102.24,345.737 97.395,344.56 100.836,340.953           "/>
    </g>
</svg>