<?xml version="1.0" encoding="UTF-8" standalone="no"?>
<svg
   xmlns:dc="http://purl.org/dc/elements/1.1/"
   xmlns:cc="http://creativecommons.org/ns#"
   xmlns:rdf="http://www.w3.org/1999/02/22-rdf-syntax-ns#"
   xmlns:svg="http://www.w3.org/2000/svg"
   xmlns="http://www.w3.org/2000/svg"
   xmlns:sodipodi="http://sodipodi.sourceforge.net/DTD/sodipodi-0.dtd"
   xmlns:inkscape="http://www.inkscape.org/namespaces/inkscape"
   version="1.1"
   id="Layer_1"
   x="0px"
   y="0px"
   width="1299.0879"
   height="1087.9062"
   viewBox="0 0 1299.0879 1087.9062"
   enable-background="new 0 0 612 792"
   xml:space="preserve"
   inkscape:version="0.48.4 r9939"
   sodipodi:docname="single-sink.svg"><metadata
   id="metadata49"><rdf:RDF><cc:Work
       rdf:about=""><dc:format>image/svg+xml</dc:format><dc:type
         rdf:resource="http://purl.org/dc/dcmitype/StillImage" /></cc:Work></rdf:RDF></metadata><defs
   id="defs47" /><sodipodi:namedview
   pagecolor="#ffffff"
   bordercolor="#666666"
   borderopacity="1"
   objecttolerance="10"
   gridtolerance="10"
   guidetolerance="10"
   inkscape:pageopacity="0"
   inkscape:pageshadow="2"
   inkscape:window-width="1920"
   inkscape:window-height="1017"
   id="namedview45"
   showgrid="false"
   fit-margin-top="2"
   fit-margin-left="2"
   fit-margin-right="2"
   fit-margin-bottom="2"
   inkscape:zoom="0.2979798"
   inkscape:cx="319.38428"
   inkscape:cy="506.00002"
   inkscape:window-x="1358"
   inkscape:window-y="-8"
   inkscape:window-maximized="1"
   inkscape:current-layer="Layer_1" />
    <g
   id="g3"
   transform="translate(13.384277,185.90622)">
        <g
   style="fill:none;stroke:#d3d3d3;stroke-width:5"
   id="g5">

            <text
   x="1225"
   y="400"
   font-size="75"
   id="text7"
   style="font-size:75px;text-anchor:middle;fill:#000000;stroke:none;font-family:'Arial,Helvetica'">1'4&quot;</text>

            <polyline
   points="1025,200 1125,200, 1125,600  1025,600"
   id="polyline9" />


            <text
   x="687.5"
   y="900"
   font-size="75"
   id="text11"
   style="font-size:75px;text-anchor:middle;fill:#000000;stroke:none;font-family:'Arial,Helvetica'">1'11&quot;</text>

            <polyline
   points="400,700 400,800, 975,800 975,700"
   id="polyline13" />

            
            <text
   x="531.25"
   y="-130"
   font-size="75"
   id="text15"
   style="font-size:75px;text-anchor:middle;fill:#000000;stroke:none;font-family:'Arial,Helvetica'">10&quot;</text>

            <polyline
   points="400, 0 400, -100, 687.5,-100 687.5,450"
   id="polyline17" />


            <text
   x="20"
   y="300"
   font-size="75"
   id="text19"
   style="font-size:75px;text-anchor:middle;fill:#000000;stroke:none;font-family:'Arial,Helvetica'">6&quot;</text>

            <polyline
   points="200, 200 100, 200, 100,360 775,360"
   id="polyline21" />
        </g>
    </g>


    <g
   transform="translate(413.38428,385.90622)"
   id="g23">
        <g
   style="fill:none;stroke:#000000;stroke-width:6"
   id="g25">
            <!-- Lines in Block: -->
            <rect
   x="0"
   y="0"
   width="575"
   height="400"
   id="rect27" />
            <ellipse
   cx="287.5"
   cy="200"
   rx="200"
   ry="160"
   id="ellipse29"
   d="m 487.5,200 c 0,88.36556 -89.54305,160 -200,160 -110.45695,0 -200,-71.63444 -200,-160 0,-88.36556 89.54305,-160 200,-160 110.45695,0 200,71.63444 200,160 z"
   sodipodi:cx="287.5"
   sodipodi:cy="200"
   sodipodi:rx="200"
   sodipodi:ry="160" />
            <circle
   style="stroke-width:5"
   cx="287.5"
   cy="160"
   r="20"
   id="circle31"
   d="m 307.5,160 c 0,11.04569 -8.95431,20 -20,20 -11.04569,0 -20,-8.95431 -20,-20 0,-11.04569 8.95431,-20 20,-20 11.04569,0 20,8.95431 20,20 z"
   sodipodi:cx="287.5"
   sodipodi:cy="160"
   sodipodi:rx="20"
   sodipodi:ry="20" />
            <circle
   style="stroke-width:3"
   cx="287.5"
   cy="160"
   r="35"
   id="circle33"
   d="m 322.5,160 c 0,19.32997 -15.67003,35 -35,35 -19.32997,0 -35,-15.67003 -35,-35 0,-19.32997 15.67003,-35 35,-35 19.32997,0 35,15.67003 35,35 z"
   sodipodi:cx="287.5"
   sodipodi:cy="160"
   sodipodi:rx="35"
   sodipodi:ry="35" />
        </g>
    </g>
    

    <g
   transform="translate(883.38428,105.90622)"
   id="g35">
        <text
   x="0"
   y="135"
   font-size="60"
   id="text37"
   style="font-size:60px;text-anchor:middle;fill:#000000;stroke:none;font-family:'Arial,Helvetica'">1.5&quot; DRAIN</text>

    </g>
    <g
   transform="matrix(5,0,0,5,263.38428,-1204.0938)"
   id="g39">
        <polyline
   stroke-miterlimit="10"
   points="100.838,343.55 128.998,335.291              128.998,300         "
   id="polyline41"
   style="fill:none;stroke:#000000;stroke-linecap:square;stroke-miterlimit:10" />
        <polygon
   points="102.24,345.737 97.395,344.56 100.836,340.953 "
   id="polygon43" />
    </g>
</svg>